<?xml version="1.0" encoding="UTF-8" standalone="no"?>
<!-- Generator: Adobe Illustrator 19.0.0, SVG Export Plug-In . SVG Version: 6.00 Build 0)  -->

<svg
   xmlns:dc="http://purl.org/dc/elements/1.1/"
   xmlns:cc="http://creativecommons.org/ns#"
   xmlns:rdf="http://www.w3.org/1999/02/22-rdf-syntax-ns#"
   xmlns:svg="http://www.w3.org/2000/svg"
   xmlns="http://www.w3.org/2000/svg"
   xmlns:sodipodi="http://sodipodi.sourceforge.net/DTD/sodipodi-0.dtd"
   xmlns:inkscape="http://www.inkscape.org/namespaces/inkscape"
   version="1.1"
   id="Layer_1"
   x="0px"
   y="0px"
   width="150px"
   height="150px"
   viewBox="-520 766.8 150 150"
   style="enable-background:new -520 766.8 150 150;"
   xml:space="preserve"
   sodipodi:docname="airplane.svg"
   inkscape:version="0.92.1 r15371"><metadata
     id="metadata3687"><rdf:RDF><cc:Work
         rdf:about=""><dc:format>image/svg+xml</dc:format><dc:type
           rdf:resource="http://purl.org/dc/dcmitype/StillImage" /></cc:Work></rdf:RDF></metadata><defs
     id="defs3685" /><sodipodi:namedview
     pagecolor="#ffffff"
     bordercolor="#666666"
     borderopacity="1"
     objecttolerance="10"
     gridtolerance="10"
     guidetolerance="10"
     inkscape:pageopacity="0"
     inkscape:pageshadow="2"
     inkscape:window-width="1920"
     inkscape:window-height="1001"
     id="namedview3683"
     showgrid="false"
     inkscape:zoom="5.3866667"
     inkscape:cx="75"
     inkscape:cy="75"
     inkscape:window-x="-9"
     inkscape:window-y="-9"
     inkscape:window-maximized="1"
     inkscape:current-layer="Layer_1" /><path
     d="M-460,906.8h-12.5l25-58.1l-42.5-1.9l-12.5,17.5h-7.5l5-22.5l-5-22.5h7.5l12.5,17.5l42.5-1.9l-25-58.1h12.5l42.2,57.1  c7.2-0.1,14.4-0.2,21.6-0.2l0,0c9,0,16.3,3.6,16.3,8.1c0,1.4-0.8,2.8-2.2,4.1c-2.9,2.5-8.3,4.1-14.1,4.1l0,0  c-7.2,0-14.4-0.1-21.6-0.2L-460,906.8z"
     id="path3680"
     style="fill:#ffffff" /></svg>