<?xml version="1.0" encoding="utf-8"?>
<!-- Generator: Adobe Illustrator 21.0.0, SVG Export Plug-In . SVG Version: 6.00 Build 0)  -->
<svg version="1.1" id="Layer_1" xmlns="http://www.w3.org/2000/svg" xmlns:xlink="http://www.w3.org/1999/xlink" x="0px" y="0px"
	 viewBox="0 0 256 256" style="enable-background:new 0 0 256 256;" xml:space="preserve">
<style type="text/css">
	.st0{fill:#FF0000;}
	.st1{stroke:#000000;stroke-miterlimit:10;}
	.st2{fill:#898888;}
	.st3{fill:#FFFFFF;}
	.st4{fill:#FFFFFF;stroke:#000000;stroke-miterlimit:10;}
</style>
<g>
	<circle class="st0" cx="131.4" cy="64.5" r="53.5"/>
</g>
<polyline class="st0" points="180.2,86.5 132.2,183.5 82.7,87 "/>
<circle class="st1" cx="131.4" cy="66.5" r="20"/>
<polygon class="st2" points="237.1,218.5 4.1,218.5 20.9,193 253.9,193 "/>
<rect x="95" y="192.8" transform="matrix(-1 -4.490820e-11 4.490820e-11 -1 270.1918 400.5)" class="st3" width="80.3" height="15"/>
<ellipse class="st3" cx="173.9" cy="200.3" rx="16.1" ry="7.5"/>
<ellipse class="st3" cx="96.1" cy="200.3" rx="13.6" ry="7.5"/>
<polyline class="st4" points="153.7,200.3 102.5,218.5 119.4,200.3 "/>
<polygon class="st3" points="96.4,200 82.4,181 82.4,200 "/>
<path d="M190,200h-13.5v-4h10.7C188.9,197.1,189.9,198.5,190,200z"/>
</svg>
